<mxfile host="drawio-plugin" modified="2022-09-30T11:46:32.206Z" agent="5.0 (Windows NT 6.2; Win64; x64) AppleWebKit/537.36 (KHTML, like Gecko) Chrome/98.0.4758.102 Safari/537.36" version="15.5.4" etag="L4oEelPc0G672LfzWurT" type="embed"><diagram id="j61-L9SjKuTXfUE1_-Mw" name="Page-1"><mxGraphModel dx="1611" dy="822" grid="1" gridSize="10" guides="1" tooltips="1" connect="1" arrows="1" fold="1" page="1" pageScale="1" pageWidth="850" pageHeight="1100" math="0" shadow="0"><root><mxCell id="0"/><mxCell id="1" parent="0"/><mxCell id="2" value="" style="rounded=0;whiteSpace=wrap;html=1;" vertex="1" parent="1"><mxGeometry x="365" y="40" width="120" height="60" as="geometry"/></mxCell></root></mxGraphModel></diagram></mxfile>